<svg width="17" height="16" viewBox="0 0 17 16" fill="none" xmlns="http://www.w3.org/2000/svg">
<path d="M7.52747 5.5496V6.6512H6.72107V7.9976H7.52747V12H9.18507V7.9976H10.2971C10.2971 7.9976 10.4019 7.352 10.4523 6.6456H9.19147V5.7256C9.19147 5.5872 9.37227 5.4024 9.55147 5.4024H10.4539V4H9.22587C7.48667 4 7.52747 5.348 7.52747 5.5496Z" fill="url(#paint0_linear_132_1717)"/>
<path d="M3.77141 1.6C3.34706 1.6 2.9401 1.76857 2.64004 2.06863C2.33998 2.36869 2.17141 2.77565 2.17141 3.2V12.8C2.17141 13.2243 2.33998 13.6313 2.64004 13.9314C2.9401 14.2314 3.34706 14.4 3.77141 14.4H13.3714C13.7958 14.4 14.2027 14.2314 14.5028 13.9314C14.8028 13.6313 14.9714 13.2243 14.9714 12.8V3.2C14.9714 2.77565 14.8028 2.36869 14.5028 2.06863C14.2027 1.76857 13.7958 1.6 13.3714 1.6H3.77141ZM3.77141 0H13.3714C14.2201 0 15.034 0.337142 15.6342 0.937258C16.2343 1.53737 16.5714 2.35131 16.5714 3.2V12.8C16.5714 13.6487 16.2343 14.4626 15.6342 15.0627C15.034 15.6629 14.2201 16 13.3714 16H3.77141C2.92272 16 2.10879 15.6629 1.50867 15.0627C0.908553 14.4626 0.571411 13.6487 0.571411 12.8V3.2C0.571411 2.35131 0.908553 1.53737 1.50867 0.937258C2.10879 0.337142 2.92272 0 3.77141 0V0Z" fill="url(#paint1_linear_132_1717)"/>
<defs>
<linearGradient id="paint0_linear_132_1717" x1="7.00103" y1="4.6" x2="12.2122" y2="7.03155" gradientUnits="userSpaceOnUse">
<stop stop-color="#B4D2E7"/>
<stop offset="1" stop-color="#E4AADB"/>
</linearGradient>
<linearGradient id="paint1_linear_132_1717" x1="1.77141" y1="1.2" x2="15.3714" y2="14.8" gradientUnits="userSpaceOnUse">
<stop stop-color="#B4D2E7"/>
<stop offset="1" stop-color="#E4AADB"/>
</linearGradient>
</defs>
</svg>
