<svg width="24" height="16" viewBox="0 0 24 16" fill="none" xmlns="http://www.w3.org/2000/svg">
<path d="M22.9381 5.39895L20.6412 0.992703C20.4811 0.687779 20.2083 0.457394 19.8808 0.350585C19.5534 0.243775 19.1972 0.268978 18.8881 0.420828L16.6662 1.53645H15.0443L11.9131 0.120828C11.6286 -0.013263 11.3045 -0.0366574 11.0037 0.0552025L6.37246 1.4052L4.20683 0.317703C3.8973 0.168275 3.54198 0.144353 3.21522 0.250944C2.88845 0.357535 2.61558 0.586377 2.4537 0.889578L0.15683 5.3052C0.0733843 5.45886 0.0219527 5.62784 0.00564152 5.80193C-0.0106697 5.97602 0.00847816 6.15161 0.0619283 6.3181C0.115378 6.48458 0.202022 6.6385 0.316624 6.77056C0.431226 6.90263 0.571409 7.01009 0.728705 7.08645L2.99745 8.22083L8.0787 12.1865C8.22036 12.304 8.38716 12.3874 8.5662 12.4302L14.0037 13.7896C14.1047 13.8159 14.2087 13.8285 14.3131 13.8271C14.661 13.8261 14.9945 13.688 15.2412 13.4427L18.6912 9.9927H18.7287L20.1537 8.29583L22.3662 7.18958C22.523 7.11023 22.6626 7.00063 22.7768 6.86707C22.8911 6.73352 22.9777 6.57867 23.0318 6.41145C23.0843 6.24493 23.1031 6.06961 23.087 5.89575C23.0709 5.7219 23.0203 5.553 22.9381 5.39895V5.39895ZM18.2037 8.8302L14.5006 6.13958C14.4031 6.0701 14.2859 6.03354 14.1662 6.03523C14.0465 6.03692 13.9305 6.07676 13.835 6.14895L12.635 7.04895C12.2124 7.36396 11.6995 7.53412 11.1725 7.53412C10.6454 7.53412 10.1325 7.36396 9.70995 7.04895L9.2037 6.66458C9.17996 6.64978 9.16053 6.629 9.14736 6.60431C9.1342 6.57963 9.12776 6.55191 9.1287 6.52395C9.12648 6.49775 9.1304 6.47139 9.14017 6.44698C9.14993 6.42256 9.16527 6.40076 9.18496 6.38333L12.8506 2.70833C12.8883 2.67921 12.9342 2.66279 12.9818 2.66145H16.46L19.1225 7.76145L18.2037 8.8302ZM1.1412 5.97083C1.13107 5.9468 1.12664 5.92075 1.12827 5.89473C1.1299 5.8687 1.13753 5.84341 1.15058 5.82083L3.45683 1.4052C3.47381 1.37574 3.49849 1.35146 3.52821 1.33494C3.55794 1.31843 3.59159 1.31031 3.62558 1.31145C3.65206 1.30774 3.67896 1.31446 3.70058 1.3302L5.53808 2.23958L3.0537 6.9927L1.23495 6.07395C1.21254 6.06499 1.19245 6.05105 1.17621 6.03318C1.15997 6.01532 1.148 5.99399 1.1412 5.97083V5.97083ZM14.4537 12.6458C14.4306 12.6683 14.402 12.6844 14.3708 12.6926C14.3396 12.7009 14.3068 12.7009 14.2756 12.6927L8.83808 11.3427L8.77245 11.3052L4.00995 7.58333L6.67245 2.48333L11.3225 1.13333C11.3661 1.1227 11.412 1.12598 11.4537 1.1427L12.5131 1.62083C12.3409 1.68809 12.1845 1.79023 12.0537 1.92083L8.38808 5.58645C8.25366 5.71865 8.14952 5.87845 8.08286 6.05481C8.01619 6.23117 7.98859 6.4199 8.00196 6.60796C8.01533 6.79603 8.06935 6.97895 8.16029 7.14411C8.25123 7.30927 8.37693 7.45272 8.52871 7.56458L9.03495 7.94895C9.65401 8.40575 10.4031 8.65221 11.1725 8.65221C11.9418 8.65221 12.6909 8.40575 13.31 7.94895L14.1818 7.2927L17.435 9.66458L14.4537 12.6458ZM21.9537 6.06458C21.9475 6.08917 21.9359 6.11205 21.9197 6.13153C21.9034 6.151 21.883 6.16657 21.86 6.17708L20.0412 7.08645L17.5568 2.3427L19.3943 1.42395C19.438 1.40416 19.4877 1.40187 19.533 1.41757C19.5784 1.43326 19.616 1.46575 19.6381 1.50833L21.9443 5.92395C21.9573 5.94483 21.9649 5.96857 21.9666 5.9931C21.9682 6.01762 21.9638 6.04216 21.9537 6.06458V6.06458ZM10.5912 15.3552C10.5604 15.4768 10.4905 15.5848 10.3922 15.6627C10.294 15.7407 10.1728 15.7841 10.0475 15.7865L9.90683 15.7677L7.08495 15.0552C6.88342 15.0074 6.69671 14.9108 6.5412 14.774L4.43183 12.9365C4.36567 12.892 4.30971 12.8341 4.26765 12.7664C4.22559 12.6987 4.19838 12.6229 4.18784 12.5439C4.1773 12.4649 4.18365 12.3846 4.20649 12.3082C4.22933 12.2319 4.26813 12.1613 4.32032 12.1011C4.37251 12.0408 4.43689 11.9924 4.50921 11.9589C4.58153 11.9255 4.66014 11.9078 4.73982 11.907C4.8195 11.9062 4.89844 11.9223 4.9714 11.9544C5.04437 11.9864 5.10971 12.0335 5.16308 12.0927L7.28183 13.9302C7.30368 13.9482 7.32932 13.961 7.35683 13.9677L10.1881 14.6708C10.3322 14.7083 10.4555 14.8014 10.5311 14.9297C10.6066 15.058 10.6283 15.211 10.5912 15.3552V15.3552Z" fill="#F8F7FF"/>
</svg>
