<svg width="17" height="16" viewBox="0 0 17 16" fill="none" xmlns="http://www.w3.org/2000/svg">
<path d="M5.21141 0H11.9314C14.4914 0 16.5714 2.08 16.5714 4.64V11.36C16.5714 12.5906 16.0826 13.7708 15.2124 14.641C14.3422 15.5111 13.162 16 11.9314 16H5.21141C2.65141 16 0.571411 13.92 0.571411 11.36V4.64C0.571411 3.4094 1.06027 2.22919 1.93044 1.35902C2.8006 0.488856 3.98081 0 5.21141 0ZM5.05141 1.6C4.28759 1.6 3.55505 1.90343 3.01494 2.44353C2.47484 2.98364 2.17141 3.71618 2.17141 4.48V11.52C2.17141 13.112 3.45941 14.4 5.05141 14.4H12.0914C12.8552 14.4 13.5878 14.0966 14.1279 13.5565C14.668 13.0164 14.9714 12.2838 14.9714 11.52V4.48C14.9714 2.888 13.6834 1.6 12.0914 1.6H5.05141ZM12.7714 2.8C13.0366 2.8 13.291 2.90536 13.4785 3.09289C13.6661 3.28043 13.7714 3.53478 13.7714 3.8C13.7714 4.06522 13.6661 4.31957 13.4785 4.50711C13.291 4.69464 13.0366 4.8 12.7714 4.8C12.5062 4.8 12.2518 4.69464 12.0643 4.50711C11.8768 4.31957 11.7714 4.06522 11.7714 3.8C11.7714 3.53478 11.8768 3.28043 12.0643 3.09289C12.2518 2.90536 12.5062 2.8 12.7714 2.8ZM8.57141 4C9.63228 4 10.6497 4.42143 11.3998 5.17157C12.15 5.92172 12.5714 6.93913 12.5714 8C12.5714 9.06087 12.15 10.0783 11.3998 10.8284C10.6497 11.5786 9.63228 12 8.57141 12C7.51055 12 6.49313 11.5786 5.74298 10.8284C4.99284 10.0783 4.57141 9.06087 4.57141 8C4.57141 6.93913 4.99284 5.92172 5.74298 5.17157C6.49313 4.42143 7.51055 4 8.57141 4ZM8.57141 5.6C7.93489 5.6 7.32444 5.85286 6.87435 6.30294C6.42427 6.75303 6.17141 7.36348 6.17141 8C6.17141 8.63652 6.42427 9.24697 6.87435 9.69706C7.32444 10.1471 7.93489 10.4 8.57141 10.4C9.20793 10.4 9.81838 10.1471 10.2685 9.69706C10.7186 9.24697 10.9714 8.63652 10.9714 8C10.9714 7.36348 10.7186 6.75303 10.2685 6.30294C9.81838 5.85286 9.20793 5.6 8.57141 5.6Z" fill="url(#paint0_linear_132_1711)"/>
<defs>
<linearGradient id="paint0_linear_132_1711" x1="0.571411" y1="0" x2="16.5714" y2="16" gradientUnits="userSpaceOnUse">
<stop stop-color="#B4D2E7"/>
<stop offset="1" stop-color="#E4AADB"/>
</linearGradient>
</defs>
</svg>
