<svg width="158" height="27" viewBox="0 0 158 27" fill="none" xmlns="http://www.w3.org/2000/svg">
<path d="M5.69922 14.948C5.69922 13.3708 6.97784 12.0922 8.55509 12.0922H21.5652C21.6461 12.0922 21.7117 12.1577 21.7117 12.2386C21.7117 13.8159 20.433 15.0945 18.8558 15.0945H5.84567C5.76479 15.0945 5.69922 15.0289 5.69922 14.948Z" fill="#F8F7FF"/>
<path d="M22.1657 20.9039C20.9169 22.2386 18.9967 22.708 17.273 22.1001L2.33563 16.8319C2.10426 16.7503 2.1945 16.4041 2.43626 16.4459L14.5656 18.5404C18.1617 19.1614 21.8622 18.5811 25.0955 16.8891C25.4053 16.727 25.7052 17.1211 25.4663 17.3765L22.1657 20.9039Z" fill="#F8F7FF"/>
<path d="M10.0021 3.89172C11.9051 2.66954 14.3474 2.67465 16.2452 3.90479L34.9265 16.0137C35.1334 16.1478 34.9621 16.4645 34.7366 16.3647L21.6941 10.593C16.148 8.13866 9.93309 7.63919 4.06618 9.17629L3.24735 9.39082C2.69597 9.53528 2.37031 8.79326 2.8499 8.48524L10.0021 3.89172Z" fill="#F8F7FF"/>
<path d="M43.8898 20.1738C42.8337 20.1738 41.8676 19.9677 40.9918 19.5555C40.1159 19.1305 39.4204 18.5573 38.9052 17.836C38.4028 17.1147 38.1517 16.329 38.1517 15.4789V10.9772C38.1517 10.1271 38.4028 9.34785 38.9052 8.63943C39.4204 7.91813 40.1159 7.3514 40.9918 6.93923C41.8676 6.51418 42.8337 6.30165 43.8898 6.30165C44.946 6.30165 45.9121 6.51418 46.7879 6.93923C47.6767 7.3514 48.3722 7.91813 48.8745 8.63943C49.3897 9.34785 49.6473 10.1271 49.6473 10.9772V15.4789C49.6473 16.329 49.3897 17.1147 48.8745 17.836C48.3722 18.5573 47.6767 19.1305 46.7879 19.5555C45.9121 19.9677 44.946 20.1738 43.8898 20.1738ZM43.8898 17.9133C44.8559 17.9133 45.6287 17.6879 46.2083 17.237C46.7879 16.7734 47.0777 16.1744 47.0777 15.4402V11.0352C47.0777 10.2881 46.7879 9.68918 46.2083 9.23837C45.6287 8.77468 44.8559 8.54283 43.8898 8.54283C42.9367 8.54283 42.1703 8.77468 41.5907 9.23837C41.0111 9.68918 40.7213 10.2881 40.7213 11.0352V15.4402C40.7213 16.1744 41.0111 16.7734 41.5907 17.237C42.1703 17.6879 42.9367 17.9133 43.8898 17.9133ZM58.5816 20.1738C57.9633 20.1738 57.5447 19.8904 57.3257 19.3237L52.399 6.55282C52.5278 6.48842 52.7017 6.43046 52.9207 6.37894C53.1396 6.32741 53.3328 6.30165 53.5003 6.30165C54.5178 6.30165 55.1747 6.71382 55.471 7.53816L58.4463 15.8653L57.9826 17.1018L58.1952 17.1791L61.6728 7.53816C61.982 6.71382 62.6389 6.30165 63.6435 6.30165C63.811 6.30165 64.0042 6.32741 64.2231 6.37894C64.4421 6.43046 64.6224 6.48842 64.7641 6.55282L59.8374 19.3237C59.7343 19.5941 59.5733 19.8067 59.3544 19.9612C59.1483 20.1029 58.8907 20.1738 58.5816 20.1738ZM69.5139 8.2337C69.5139 7.62833 69.7393 7.1582 70.1902 6.82331C70.641 6.47554 71.2785 6.30165 72.1029 6.30165V18.2417C72.1029 18.86 71.8775 19.3365 71.4267 19.6714C70.9759 20.0063 70.3383 20.1738 69.5139 20.1738V8.2337ZM82.5749 20.1738C81.4157 20.1738 80.4046 20.0321 79.5416 19.7487C78.6786 19.4653 78.0153 19.0661 77.5516 18.5508C77.1007 18.0227 76.8753 17.4109 76.8753 16.7154C76.8753 15.6592 77.5902 15.1311 79.0199 15.1311C79.0714 16.11 79.3999 16.8506 80.0053 17.353C80.6235 17.8553 81.4865 18.1065 82.5942 18.1065C83.5087 18.1065 84.2171 17.9519 84.7195 17.6428C85.2218 17.3208 85.473 16.8764 85.473 16.3097C85.473 15.9361 85.3764 15.6334 85.1832 15.4016C84.9899 15.1569 84.6615 14.9444 84.1978 14.764C83.7341 14.5708 83.0579 14.3776 82.1692 14.1844C80.9069 13.8882 79.9087 13.5597 79.1745 13.1991C78.4532 12.8384 77.9315 12.4069 77.6095 11.9046C77.2875 11.3894 77.1265 10.7518 77.1265 9.99187C77.1265 9.25769 77.339 8.61367 77.7641 8.05982C78.202 7.50596 78.8138 7.07447 79.5995 6.76535C80.3981 6.45622 81.3126 6.30165 82.343 6.30165C83.3348 6.30165 84.2171 6.4369 84.9899 6.70738C85.7756 6.96499 86.3875 7.33208 86.8254 7.80865C87.2762 8.28522 87.5016 8.83264 87.5016 9.45089C87.5016 10.404 86.8125 10.8999 85.4343 10.9386C85.357 10.0498 85.0737 9.39937 84.5842 8.9872C84.0948 8.57503 83.3477 8.36895 82.343 8.36895C81.4801 8.36895 80.8167 8.51063 80.353 8.794C79.8893 9.07736 79.6575 9.47665 79.6575 9.99187C79.6575 10.3525 79.7477 10.6552 79.928 10.8999C80.1083 11.1318 80.411 11.3379 80.836 11.5182C81.2611 11.6856 81.8665 11.8595 82.6522 12.0398C83.9788 12.3361 85.0286 12.671 85.8014 13.0445C86.5742 13.4052 87.1345 13.8495 87.4823 14.3776C87.8301 14.8928 88.0039 15.5304 88.0039 16.2903C88.0039 17.076 87.7785 17.7651 87.3277 18.3576C86.8898 18.9373 86.2587 19.3881 85.4343 19.7101C84.6229 20.0192 83.6697 20.1738 82.5749 20.1738ZM105.434 20.1738C104.288 20.1738 103.264 19.9548 102.362 19.5169C101.473 19.0789 100.778 18.4671 100.275 17.6814C99.7731 16.8957 99.522 16.0005 99.522 14.9959V11.4409C99.522 10.4362 99.7667 9.5475 100.256 8.77468C100.758 7.98898 101.448 7.3836 102.323 6.95855C103.199 6.52062 104.204 6.30165 105.337 6.30165C106.471 6.30165 107.476 6.47554 108.351 6.82331C109.24 7.1582 109.929 7.63477 110.419 8.25302C110.908 8.8584 111.153 9.55394 111.153 10.3396C111.153 10.8162 110.992 11.1962 110.67 11.4795C110.361 11.75 109.942 11.8853 109.414 11.8853C109.156 11.8853 108.873 11.8466 108.564 11.7694C108.59 11.4602 108.603 11.1575 108.603 10.8613C108.603 10.1786 108.3 9.62478 107.695 9.19973C107.089 8.77468 106.303 8.56215 105.337 8.56215C104.384 8.56215 103.605 8.83264 103 9.37361C102.407 9.9017 102.111 10.5908 102.111 11.4409V14.9959C102.111 15.8589 102.42 16.5608 103.038 17.1018C103.657 17.6428 104.455 17.9133 105.434 17.9133C106.4 17.9133 107.186 17.7007 107.791 17.2757C108.397 16.8506 108.699 16.3032 108.699 15.6334C108.699 15.3243 108.686 15.0281 108.661 14.7447C108.983 14.6803 109.253 14.6481 109.472 14.6481C110.013 14.6481 110.444 14.7898 110.766 15.0732C111.088 15.3565 111.25 15.7429 111.25 16.2324C111.25 16.9923 111.005 17.675 110.515 18.2804C110.026 18.8728 109.337 19.3365 108.448 19.6714C107.572 20.0063 106.568 20.1738 105.434 20.1738ZM116.979 19.9999C116.605 19.9999 116.283 19.8646 116.013 19.5941C115.755 19.3237 115.626 19.0017 115.626 18.6281V8.21438C115.626 7.57037 115.839 7.09379 116.264 6.78467C116.689 6.46266 117.34 6.30165 118.215 6.30165V17.7587H123.432C124.037 17.7587 124.495 17.9519 124.804 18.3383C125.113 18.7118 125.267 19.2657 125.267 19.9999H116.979ZM134.194 20.1738C133.112 20.1738 132.133 19.9548 131.257 19.5169C130.394 19.0789 129.718 18.4736 129.228 17.7007C128.739 16.9279 128.494 16.0521 128.494 15.0732V8.21438C128.494 7.59613 128.713 7.12599 129.151 6.80399C129.589 6.4691 130.233 6.30165 131.083 6.30165V15.0732C131.083 15.9361 131.367 16.6252 131.933 17.1404C132.5 17.6557 133.254 17.9133 134.194 17.9133C135.134 17.9133 135.888 17.6557 136.454 17.1404C137.021 16.6252 137.304 15.9361 137.304 15.0732V8.21438C137.304 7.58325 137.523 7.10667 137.961 6.78467C138.399 6.46266 139.043 6.30165 139.893 6.30165V15.0732C139.893 16.0521 139.649 16.9279 139.159 17.7007C138.67 18.4736 137.987 19.0789 137.111 19.5169C136.248 19.9548 135.276 20.1738 134.194 20.1738ZM145.868 19.9999C145.521 19.9999 145.218 19.884 144.96 19.6521C144.703 19.4203 144.574 19.1433 144.574 18.8213V7.65409C144.574 7.33208 144.696 7.05515 144.941 6.82331C145.199 6.59146 145.508 6.47554 145.868 6.47554H151.066C152.302 6.47554 153.288 6.82331 154.022 7.51884C154.769 8.2015 155.142 9.12244 155.142 10.2817C155.142 10.8355 154.994 11.3636 154.698 11.866C154.402 12.3554 154.009 12.7354 153.519 13.0059V13.0638C154.189 13.2957 154.717 13.6756 155.104 14.2037C155.503 14.7318 155.703 15.3372 155.703 16.0199C155.703 16.7927 155.522 17.4818 155.162 18.0871C154.801 18.6925 154.299 19.1627 153.655 19.4975C153.011 19.8324 152.276 19.9999 151.452 19.9999H145.868ZM151.027 12.1558C151.452 12.1558 151.813 11.9819 152.109 11.6341C152.418 11.2863 152.573 10.8677 152.573 10.3783C152.573 9.85018 152.431 9.43157 152.148 9.12244C151.877 8.81332 151.504 8.65875 151.027 8.65875H147.086V12.1558H151.027ZM151.413 17.8167C151.942 17.8167 152.36 17.6621 152.669 17.353C152.978 17.031 153.133 16.593 153.133 16.0392C153.133 15.4982 152.978 15.0796 152.669 14.7833C152.373 14.4742 151.954 14.3197 151.413 14.3197H147.086V17.8167H151.413Z" fill="#F8F7FF"/>
<path d="M37.4175 24.2411C37.4175 23.8704 37.718 23.5698 38.0887 23.5698H155.775C156.146 23.5698 156.446 23.8704 156.446 24.2411V25.8448C156.446 26.2155 156.146 26.5161 155.775 26.5161H38.0887C37.718 26.5161 37.4175 26.2155 37.4175 25.8448V24.2411Z" fill="#F8F7FF"/>
<path d="M37.4175 0.671143C37.4175 0.300413 37.718 -0.00012207 38.0887 -0.00012207H155.775C156.146 -0.00012207 156.446 0.300413 156.446 0.671143V2.27487C156.446 2.6456 156.146 2.94614 155.775 2.94614H38.0887C37.718 2.94614 37.4175 2.6456 37.4175 2.27487V0.671143Z" fill="#F8F7FF"/>
</svg>
