<svg width="195" height="123" viewBox="0 0 195 123" fill="none" xmlns="http://www.w3.org/2000/svg">
<path d="M29.6189 70.0328C29.6189 61.8355 36.2641 55.1902 44.4615 55.1902H112.078C112.498 55.1902 112.839 55.531 112.839 55.9514C112.839 64.1487 106.194 70.7939 97.9962 70.7939H30.38C29.9597 70.7939 29.6189 70.4532 29.6189 70.0328Z" fill="#0C0C11"/>
<path d="M115.199 100.987C108.708 107.923 98.729 110.363 89.7703 107.203L12.1378 79.8234C10.9353 79.3993 11.4043 77.6003 12.6608 77.8173L75.6995 88.7032C94.389 91.9306 113.621 88.9146 130.426 80.121C132.036 79.2785 133.594 81.3268 132.352 82.6537L115.199 100.987Z" fill="#0C0C11"/>
<path d="M51.9841 12.5711C61.8742 6.21914 74.5671 6.24574 84.4305 12.639L181.521 75.5717C182.596 76.2685 181.706 77.9143 180.534 77.3958L112.75 47.399C83.9253 34.6433 51.6253 32.0475 21.1337 40.0361L16.8781 41.151C14.0124 41.9018 12.3199 38.0454 14.8125 36.4446L51.9841 12.5711Z" fill="#0C0C11"/>
</svg>
