<svg width="328" height="73" viewBox="0 0 328 73" fill="none" xmlns="http://www.w3.org/2000/svg">
<path d="M17.8186 56.4787C14.9108 56.4787 12.2514 55.9114 9.8401 54.7766C7.42883 53.6065 5.514 52.0285 4.09561 50.0428C2.71268 48.057 2.02121 45.894 2.02121 43.5536V31.1604C2.02121 28.8201 2.71268 26.6747 4.09561 24.7245C5.514 22.7387 7.42883 21.1785 9.8401 20.0438C12.2514 18.8736 14.9108 18.2885 17.8186 18.2885C20.7263 18.2885 23.3857 18.8736 25.797 20.0438C28.2437 21.1785 30.1586 22.7387 31.5415 24.7245C32.9599 26.6747 33.6691 28.8201 33.6691 31.1604V43.5536C33.6691 45.894 32.9599 48.057 31.5415 50.0428C30.1586 52.0285 28.2437 53.6065 25.797 54.7766C23.3857 55.9114 20.7263 56.4787 17.8186 56.4787ZM17.8186 50.2555C20.478 50.2555 22.6056 49.635 24.2013 48.3939C25.797 47.1173 26.5949 45.4684 26.5949 43.4472V31.32C26.5949 29.2633 25.797 27.6144 24.2013 26.3733C22.6056 25.0968 20.478 24.4585 17.8186 24.4585C15.1945 24.4585 13.0847 25.0968 11.489 26.3733C9.89329 27.6144 9.09544 29.2633 9.09544 31.32V43.4472C9.09544 45.4684 9.89329 47.1173 11.489 48.3939C13.0847 49.635 15.1945 50.2555 17.8186 50.2555ZM58.2652 56.4787C56.5631 56.4787 55.4107 55.6986 54.8078 54.1384L41.2445 18.98C41.5991 18.8027 42.0778 18.6431 42.6806 18.5013C43.2834 18.3594 43.8153 18.2885 44.2763 18.2885C47.0776 18.2885 48.886 19.4232 49.7016 21.6926L57.8928 44.6174L56.6163 48.0215L57.2014 48.2343L66.7755 21.6926C67.6266 19.4232 69.435 18.2885 72.2009 18.2885C72.6618 18.2885 73.1937 18.3594 73.7966 18.5013C74.3994 18.6431 74.8958 18.8027 75.2859 18.98L61.7225 54.1384C61.4388 54.883 60.9956 55.4681 60.3928 55.8936C59.8254 56.2837 59.1162 56.4787 58.2652 56.4787ZM88.3622 23.6075C88.3622 21.9409 88.9828 20.6466 90.2239 19.7246C91.465 18.7672 93.2202 18.2885 95.4896 18.2885V51.1597C95.4896 52.8618 94.8691 54.1738 93.628 55.0958C92.3869 56.0177 90.6317 56.4787 88.3622 56.4787V23.6075ZM124.319 56.4787C121.128 56.4787 118.344 56.0886 115.969 55.3085C113.593 54.5284 111.767 53.4292 110.49 52.0108C109.249 50.5569 108.628 48.8726 108.628 46.9578C108.628 44.05 110.596 42.5962 114.532 42.5962C114.674 45.2911 115.578 47.3301 117.245 48.713C118.947 50.0959 121.323 50.7874 124.372 50.7874C126.89 50.7874 128.84 50.3619 130.223 49.5109C131.606 48.6244 132.298 47.401 132.298 45.8408C132.298 44.8124 132.032 43.9791 131.5 43.3408C130.968 42.6671 130.064 42.082 128.787 41.5856C127.511 41.0537 125.649 40.5218 123.202 39.9899C119.727 39.1743 116.979 38.2701 114.958 37.2772C112.972 36.2843 111.536 35.0964 110.65 33.7135C109.763 32.2951 109.32 30.5399 109.32 28.4477C109.32 26.4265 109.905 24.6535 111.075 23.1288C112.281 21.604 113.965 20.4161 116.128 19.565C118.327 18.714 120.844 18.2885 123.681 18.2885C126.411 18.2885 128.84 18.6608 130.968 19.4055C133.131 20.1147 134.815 21.1253 136.021 22.4373C137.262 23.7493 137.883 25.2563 137.883 26.9584C137.883 29.5824 135.986 30.9476 132.191 31.054C131.979 28.6073 131.199 26.8166 129.851 25.6819C128.504 24.5472 126.447 23.9798 123.681 23.9798C121.305 23.9798 119.479 24.3699 118.202 25.15C116.926 25.9301 116.288 27.0293 116.288 28.4477C116.288 29.4406 116.536 30.2739 117.032 30.9476C117.529 31.5859 118.362 32.1533 119.532 32.6497C120.702 33.1107 122.369 33.5894 124.532 34.0858C128.184 34.9014 131.074 35.8234 133.202 36.8517C135.33 37.8446 136.872 39.0679 137.829 40.5218C138.787 41.9402 139.266 43.6954 139.266 45.7876C139.266 47.9506 138.645 49.8477 137.404 51.4789C136.198 53.0746 134.461 54.3157 132.191 55.2022C129.957 56.0532 127.333 56.4787 124.319 56.4787ZM187.251 56.4787C184.095 56.4787 181.276 55.8759 178.794 54.6703C176.347 53.4646 174.432 51.7803 173.049 49.6172C171.666 47.4542 170.975 44.9897 170.975 42.2239V32.437C170.975 29.6711 171.649 27.2244 172.996 25.0968C174.379 22.9337 176.276 21.2671 178.687 20.0969C181.099 18.8913 183.865 18.2885 186.985 18.2885C190.106 18.2885 192.871 18.7672 195.283 19.7246C197.729 20.6466 199.627 21.9586 200.974 23.6607C202.321 25.3273 202.995 27.2421 202.995 29.4051C202.995 30.7172 202.552 31.7632 201.665 32.5433C200.814 33.288 199.662 33.6603 198.208 33.6603C197.499 33.6603 196.719 33.5539 195.868 33.3412C195.939 32.4901 195.974 31.6568 195.974 30.8413C195.974 28.9619 195.141 27.4371 193.474 26.267C191.808 25.0968 189.645 24.5117 186.985 24.5117C184.361 24.5117 182.216 25.2564 180.549 26.7457C178.918 28.1995 178.102 30.0966 178.102 32.437V42.2239C178.102 44.5997 178.953 46.5322 180.656 48.0215C182.358 49.5109 184.556 50.2555 187.251 50.2555C189.911 50.2555 192.074 49.6704 193.74 48.5003C195.407 47.3301 196.24 45.823 196.24 43.9791C196.24 43.1281 196.205 42.3125 196.134 41.5324C197.02 41.3551 197.765 41.2665 198.368 41.2665C199.857 41.2665 201.045 41.6565 201.931 42.4366C202.818 43.2167 203.261 44.2805 203.261 45.628C203.261 47.7201 202.587 49.5995 201.24 51.2661C199.892 52.8973 197.995 54.1738 195.549 55.0958C193.137 56.0177 190.371 56.4787 187.251 56.4787ZM219.034 56C218.006 56 217.12 55.6277 216.375 54.883C215.666 54.1384 215.311 53.2519 215.311 52.2235V23.5543C215.311 21.7813 215.896 20.4693 217.066 19.6182C218.237 18.7317 220.027 18.2885 222.439 18.2885V49.83H236.8C238.466 49.83 239.725 50.3619 240.576 51.4257C241.427 52.454 241.853 53.9788 241.853 56H219.034ZM266.427 56.4787C263.449 56.4787 260.754 55.8759 258.342 54.6703C255.967 53.4646 254.105 51.798 252.757 49.6704C251.41 47.5428 250.736 45.1316 250.736 42.4366V23.5543C250.736 21.8522 251.339 20.5579 252.545 19.6714C253.75 18.7495 255.523 18.2885 257.864 18.2885V42.4366C257.864 44.8124 258.644 46.7095 260.204 48.1279C261.764 49.5463 263.839 50.2555 266.427 50.2555C269.016 50.2555 271.09 49.5463 272.65 48.1279C274.211 46.7095 274.991 44.8124 274.991 42.4366V23.5543C274.991 21.8167 275.594 20.5047 276.799 19.6182C278.005 18.7317 279.778 18.2885 282.118 18.2885V42.4366C282.118 45.1316 281.444 47.5428 280.097 49.6704C278.75 51.798 276.87 53.4646 274.459 54.6703C272.083 55.8759 269.406 56.4787 266.427 56.4787ZM298.568 56C297.611 56 296.777 55.6809 296.068 55.0426C295.359 54.4043 295.004 53.6419 295.004 52.7554V22.0118C295.004 21.1253 295.341 20.3629 296.015 19.7246C296.724 19.0863 297.575 18.7672 298.568 18.7672H312.876C316.28 18.7672 318.993 19.7246 321.014 21.6394C323.071 23.5188 324.099 26.0542 324.099 29.2456C324.099 30.7703 323.691 32.2242 322.876 33.6071C322.06 34.9546 320.979 36.0007 319.631 36.7453V36.9049C321.475 37.5432 322.929 38.5892 323.993 40.0431C325.092 41.4969 325.641 43.1636 325.641 45.0429C325.641 47.1705 325.145 49.0676 324.152 50.7342C323.159 52.4008 321.776 53.6951 320.003 54.6171C318.23 55.539 316.209 56 313.94 56H298.568ZM312.77 34.405C313.94 34.405 314.933 33.9263 315.748 32.9689C316.599 32.0114 317.025 30.859 317.025 29.5115C317.025 28.0577 316.635 26.9052 315.855 26.0542C315.11 25.2032 314.082 24.7776 312.77 24.7776H301.919V34.405H312.77ZM313.833 49.9896C315.287 49.9896 316.44 49.564 317.291 48.713C318.142 47.8265 318.567 46.6209 318.567 45.0961C318.567 43.6068 318.142 42.4544 317.291 41.6388C316.475 40.7877 315.323 40.3622 313.833 40.3622H301.919V49.9896H313.833Z" fill="#0C0C11"/>
<path d="M0 66.7369C0 65.7163 0.827381 64.8889 1.84801 64.8889H325.841C326.862 64.8889 327.689 65.7163 327.689 66.7369V71.152C327.689 72.1726 326.862 73 325.841 73H1.848C0.827374 73 0 72.1726 0 71.152V66.7369Z" fill="#0C0C11"/>
<path d="M0 1.84801C0 0.82738 0.827381 0 1.84801 0H325.841C326.862 0 327.689 0.827381 327.689 1.84801V6.2631C327.689 7.28373 326.862 8.11111 325.841 8.11111H1.848C0.827374 8.11111 0 7.28373 0 6.2631V1.84801Z" fill="#0C0C11"/>
</svg>
