<svg width="21" height="16" viewBox="0 0 21 16" fill="none" xmlns="http://www.w3.org/2000/svg">
<path d="M10.2857 0C11.1651 0 12.0672 0.0220001 12.9415 0.0580001L13.9742 0.106L14.9626 0.163L15.8883 0.224L16.7338 0.288C17.6514 0.356278 18.5147 0.736947 19.1721 1.36304C19.8294 1.98913 20.2386 2.82054 20.3277 3.711L20.3688 4.136L20.4459 5.046C20.5179 5.989 20.5714 7.017 20.5714 8C20.5714 8.983 20.5179 10.011 20.4459 10.954L20.3688 11.864C20.3554 12.01 20.3421 12.151 20.3277 12.289C20.2386 13.1796 19.8292 14.0112 19.1717 14.6373C18.5141 15.2634 17.6505 15.6439 16.7328 15.712L15.8894 15.775L14.9637 15.837L13.9742 15.894L12.9415 15.942C12.0567 15.9794 11.1713 15.9987 10.2857 16C9.40014 15.9987 8.51469 15.9794 7.62994 15.942L6.59726 15.894L5.6088 15.837L4.68309 15.775L3.8376 15.712C2.92006 15.6437 2.05668 15.2631 1.39934 14.637C0.742005 14.0109 0.332819 13.1795 0.243771 12.289L0.202629 11.864L0.125486 10.954C0.0468386 9.97114 0.00498242 8.98582 0 8C0 7.017 0.0534857 5.989 0.125486 5.046L0.202629 4.136C0.216 3.99 0.229371 3.849 0.243771 3.711C0.332785 2.8207 0.741823 1.98942 1.39895 1.36334C2.05608 0.737271 2.91922 0.356503 3.83657 0.288L4.68103 0.224L5.60674 0.163L6.59623 0.106L7.62891 0.0580001C8.514 0.0206329 9.3998 0.00129529 10.2857 0V0ZM10.2857 2C9.43714 2 8.56389 2.022 7.71429 2.056L6.70834 2.103L5.74251 2.158L4.83531 2.218L4.00423 2.281C3.56743 2.31113 3.1557 2.49065 2.84204 2.78773C2.52837 3.08481 2.33303 3.48026 2.29063 3.904C2.17029 5.113 2.05714 6.618 2.05714 8C2.05714 9.382 2.17029 10.887 2.29063 12.096C2.37806 12.968 3.08983 13.646 4.00423 13.719L4.83531 13.781L5.74251 13.841L6.70834 13.897L7.71429 13.944C8.56389 13.978 9.43714 14 10.2857 14C11.1343 14 12.0075 13.978 12.8571 13.944L13.8631 13.897L14.8289 13.842L15.7361 13.782L16.5672 13.719C17.004 13.6889 17.4157 13.5094 17.7294 13.2123C18.0431 12.9152 18.2384 12.5197 18.2808 12.096C18.4011 10.887 18.5143 9.382 18.5143 8C18.5143 6.618 18.4011 5.113 18.2808 3.904C18.2384 3.48026 18.0431 3.08481 17.7294 2.78773C17.4157 2.49065 17.004 2.31113 16.5672 2.281L15.7361 2.219L14.8289 2.159L13.8631 2.103L12.8571 2.056C12.0005 2.02017 11.1432 2.0015 10.2857 2V2ZM8.22857 5.575C8.22851 5.47726 8.253 5.38099 8.29992 5.29455C8.34684 5.20812 8.41477 5.13413 8.4978 5.07903C8.58084 5.02394 8.67646 4.98939 8.77635 4.97841C8.87624 4.96742 8.97738 4.98033 9.07097 5.016L9.15429 5.056L13.4743 7.48C13.5603 7.52826 13.6331 7.59599 13.6864 7.67744C13.7398 7.75889 13.7721 7.85165 13.7807 7.94785C13.7893 8.04405 13.7738 8.14084 13.7357 8.23C13.6976 8.31916 13.6379 8.39806 13.5617 8.46L13.4743 8.52L9.15429 10.945C9.06723 10.994 8.96917 11.0216 8.86865 11.0253C8.76812 11.0291 8.66818 11.0089 8.57752 10.9665C8.48687 10.9241 8.40824 10.8608 8.3485 10.7821C8.28876 10.7034 8.2497 10.6117 8.23474 10.515L8.22857 10.425V5.575V5.575Z" fill="url(#paint0_linear_132_1725)"/>
<defs>
<linearGradient id="paint0_linear_132_1725" x1="0" y1="0" x2="20.5714" y2="16" gradientUnits="userSpaceOnUse">
<stop stop-color="#B4D2E7"/>
<stop offset="1" stop-color="#E4AADB"/>
</linearGradient>
</defs>
</svg>
